<mxfile host="app.diagrams.net" agent="Mozilla/5.0 (Macintosh; Intel Mac OS X 10_15_7) AppleWebKit/605.1.15 (KHTML, like Gecko) Version/18.1.1 Safari/605.1.15" version="26.0.5">
  <diagram name="Page-1" id="mx91JGc3U_ifcaarB5FW">
    <mxGraphModel dx="1026" dy="692" grid="1" gridSize="10" guides="1" tooltips="1" connect="1" arrows="1" fold="1" page="1" pageScale="1" pageWidth="850" pageHeight="1100" math="0" shadow="0">
      <root>
        <mxCell id="0" />
        <mxCell id="1" parent="0" />
        <mxCell id="fJBAHvxhCO_1ta349B0q-3" value="" style="shape=datastore;whiteSpace=wrap;html=1;" vertex="1" parent="1">
          <mxGeometry x="20" y="260" width="70" height="110" as="geometry" />
        </mxCell>
        <mxCell id="fJBAHvxhCO_1ta349B0q-4" value="" style="shape=image;verticalLabelPosition=bottom;labelBackgroundColor=default;verticalAlign=top;aspect=fixed;imageAspect=0;image=data:image/png,iVBORw0KGgoAAAANSUhEUgAAAWAAAADsCAYAAABKZHxbAAAACXBIWXMAABYlAAAWJQFJUiTwAAAgAElEQVR4nO3dd3gU19U/8O9sX616RQWQkCgq9F5tejFgbIxtjI1bYjtxS3Hqmzex4/zyxo5LEseJu3HvdEwzNtX0jgCBhIR6QV3aPju/P7DqrnbvbJtd6XyeJ0+0s3dmLhidvXvm3nM5QRAEEEII8TuZ1B0ghJC+igIwIYRIhAIwIYRIhAIwIYRIhAIwIYRIhAIwIYRIhAIwIYRIhAIwIYRIhAIwIYRIhAIwIYRIhAIwIYRIhAIwIYRIhAIwIYRIhAIwIYRIhAIwIYRIhAIwIYRIhAIwIYRIhAIwIYRIhAIwIYRIhAIwIYRIhAIwIYRIhAIwIYRIhAIwIYRIhAIwIYRIhAIwIYRIhAIwIYRIhAIwIYRIRCF1BwjpTUwWK44WlePwlTJ8X1iKY+U1GBodiZx+MchMikNmYiyG9YtBbJhO6q6SAMAJgiBI3QlCeoOKhmasfncjvq2ocdl28cBEPHbjOMzOGgQZx/mhdyQQUQAmxAuaDCYseuVTHLxWL+q8qfFR+NnMCVg6eigUMsoI9jUUgAnxgr9s2os/7Tvh9vkTY6PwhwWTsXDEENB4uO+gAEyIh2yCgMw/v4H8VgMAIEQmwxMTcrB09FDoTWYcvlKOQ0Wl2FdSjQaed3qtm9OS8LdbZmNIvxh/dJ1IjAIwIR7Kr67H0Bfea3/9m4nD8dfls+3a1TS14v2Dp/H2kXPIa9b3eL1IpQLvrpiLpaOG+qS/JHBQ0okQD9U0t3R5Pap/gsN2ceE6/HL+FJz63YP45LY5mBIX7bBdg8WKmz/Zhr9s2gsrb/N6f0ngoGlohHhIq1R2ed1sNDttr1LIcfuEHNw2PhsbTl7E/+04hON1jV3ayAQBf9p3AvsLS/HruZMRE6pFiEqFUI0SoWoVdGoVzZ7oBSgFQYiHmgwmJD79Gow//Cot6J+ALY+vZD7fbOXxn++O4v99dwx1VivTOXKOQ2a4DtNSkzApLRnj05IxpF8MBeUgQwGYEC+4/fUv8VVBafvrdXctFJ3DzS2vxq1vrmt/mCfWkNAQLM5Mw7zsQZieMQAaldL1SURSFIAJ8YIduQVY+N6m9tdZ4Toc+OVqhGvVoq5TWteMxz79GpuKKjzqT5JahQfGZeG+KSORFhfl0bWI71AAJsQLBAC3v/YF1l4paz/25JhMvHTnfNHX4m0CPj58Bu8ePAurjUej0YL8Vj2MbjyQk3Mcnhibhd8tmoqY0BDR5xPfogBMiJcUXWvApH98hBqzpf3Y+lULsWSk59PJbIKAmuZWVDS0oKy+CWUNzSitb0ZxXQO2FpTimsV57jhVq8GfF0zByknDKU8cQCgAE+JFHx48jXvXfdf+OkWjwnePrcSgeN+lAZoMJmw4eREfHj2Hb8qc16FYPLAfnr91LoYm0kKPQEABmBAv+9GaTXj3fEH766nxUdj86J2i88HuOFFcgXcPnML7Zy6jpYeURahcjqdnjsdjs8dDKZf7vE+kZxSACfGyRr0Rc//1SZe5vQ/kpOPN1Uv81ofy+ia8tuc4Xj2ai4Ye0hMzk2Lxyu0LkJkU67d+ka4oABPiA7nlNZj16mddcrNrbpmJeyaP9Gs/Khub8eKOQ3jl+HlYbPa/6uEKOf42bwp+fMMYyg1LgAIwIT6y/uRFLP9kW/vrOJUSh352N1JjI/zel7MlVXhq7Tc95ohvz+iPf9w5HwnhoX7uWd8mf/rpp5+WuhOE9EbDEmNhadZjf2kVAEDP21BeeQ23jcvye8nJhIhQrJyQg2iZDAeKKmDuNu7KrWvCphMXMTo5DgOi/f8B0VfRCJgQHzJZrJj3r0+wv6q2/dhXKxdg2ehhzNdo0BtR1tCM8vompMVFI8PDGRW55TV47JOt2FtVZ/eeUsbhpXlT8JOZ40EZCd+jAEyIj50prcKEf38Gi+36rISRkWE4+Kt7oVa6roVltdlw/7sb8HHeVQDX0xjvr1yAednpHvXJZLHi2c378H8HTzt8/+Hhg/HSHfNoObOPUQqCEB9LCA8F32rAnpJKAECV0YzsmHDkJMe7PFfGcZgxeAC2nMzDNbMFet6Gz89exvQBiUiNiXS7Twq5DLMy0zAxMRb7Ll1Fk7Vrofjj1XU4fukq5mUOgk6tcvs+xDmqB0yIH/xs3iSkhWjaX39+/ALzubFhOqxZfRPCFdfn7FpsAv5n425YXOyuwWJBTgb2PL4SsxLj7N7bXlqNhf/5HAU14va5I+woABPiBxFaDe4YMaT99abCcpR0qwHszLiBSXhlyYz21wer63GquNIrfRsYG4kNj96Oh0YMtnvvZF0jFv/3C5x3scKOuIcCMCF+MidrUPvPvCBg/Yk8UeffOWE4RkWFt7+OD9N5rW8hKiX+s2oRnps1we69Sy16LHnjK5wrrfba/ch1FIAJ8ZOpGSno1+mh1qcn2dMQwPW87ZM3jAUA3JaRgoGx7ueAHeE4Dk8tmIIPl8+GUtY1NBQZjLj1rXW4WHHNq/fs6ygAE+InKoUCCzMGtL8+VFOP0yXi0gh3jM/GjYkxeOG2ud7uXruVE4djw92L2nPObQr0Btz61loU1jT47N59DQVgQvxoQc6gLq/FpiHUSgW+fmwl+vt4scT8nAx8tXqxXRDOa9bjtrfWorKxpYcziRgUgAnxozlZ6QiVd/zafXYmD7xNXKF1lvnD3jBrWBo+v3sRNPKuYeJUfRPuens9mgwmv/SjN6MATIgfRYZosGzIwPbXec16fJ9fImGPnJublY73b5sDW7dlcXsqr+HhDzbD6sYuHaQDBWBC/OzWbpt1rj8pLg3hb8vHZuHf8ybbHf88vwT/s/ZbCXrUe1AAJsTP5menI0XTsbrsy9wCmFxsKSS1R2dPwC/GZ9sdf+HoObyz/5QEPeodKAAT4mcalRJ3ddonrtRowu68Iuk6xOivt87CskHJdsef3LwXh66UStCj4EcBmBAJrJyY0+X1htOBnYYAAKVcjjfvvgmjI8O7HNfbbHjgo62oaWqVqGfBiwIwIRIYkZKA+SkdxXjWXihCq8ni5IzAEB0agnc61aVok9fcisc+3QobFVcUhQIwIRJ5YMqo9p9rzBZ8eSxXwt6wG5GSgH8tnmF3/Mv8Urz23TEJehS8KAATIpGlo4ZiSGhI++t/7D4OszWwH8a1uWfKSDw4PMPu+O92HkJuORXuYUUBmBCJqBRyPDKlY5POM43NeHe/4wLpgej55XOQ020PuRaexxOf7YCF5gczoQBMiITunzqqS53gv+w6HDTLfCNDNPjnijl2x3dX1OD13ZSKYEEBmBAJhWvV+F2nEpDlJjP+sO47CXskzo1DU/Hzcfbzg//07RFcvUZFe1yhAEyIxFZPHYlpCTHtr989X4BnN+2VsEfi/GHx9C65bABosFjxzOY9EvUoeFAAJkRiSrkcLyyfDXmnegtP7zuBf+86ImGv2EWGaPDsoml2x987X4gjhWUS9Ch4UAAmJACMT03CszeO63LsFzsO4kB+sUQ9Emf52EwsHNDP7viLOw9J0JvgQQGYkADxm4VT8asJHSvkeEHAr4MkH8xxHP7kcG5wCY5frZCgR8GBAjAhAeTZW2ZiQqft5g/V1AfN3ODxqUm4N2uQ3fH/fHdUgt4EBwrAhAQQpVyOqWndC95wDtsGop/Pnmh37IMLhbhSTVvbO0IBmJAA0moy47Ozl9tfj4+NhKpb3YVANrx/Am5OS+pyjBcEvHPgpEQ9CmwUgAkJINvO5aPcZG5/vSQrXcLeuOf+TjUu2rxz4gKajbSFUXcUgAkJIFvP5nd5vWzMMIl64r6FORkYGqbrcqzKZMH6Excl6lHgogBMSIDgbTZsL+gobD4tIQbZSXES9sg9CrkM947Lsjv+wZHgqPbmTxSACQkQlyrruqQf7gjC0W+bO8bndFlYAgC7yqtxsqRSoh4FJgrAhASIk8Ud82WVMg63jA7eAJwaG4G7M9Psjr9L+8d1QQGYkACxK6+w/ecFA/ohMTJMwt547pEbxtode+/MZVQHSbU3f6AATEgAsNps2JHfkf+dnj5Awt54x4S0ZNzUbXlyC8/jve+Dp+axr1EAJiQAXCir6ZL/HZuaKGFvvOenN4yzO/b64bPQmwN//zt/oABMSAA4Xdr14dTw5PgeWgaXeTnpmBgb1eVYod6Iz2lGBAAKwIQEhAsVte0/Z+i0iOlWXzdYyTgOj80YY3f81X0nYLXRtkUUgAkJAAW1HbUShsRGSNgT71s+NhNDw7p+oJyob8KmU3kS9ShwUAAmJACU1nfMDEgOC3XSMviolQo8OnW03fF/fHcMNkGQoEeBgwIwIQGgtFXf/nO0TithT3zj7snDkaRWdTm2v6oWO87l93BG30ABmBCJCQDKjR0zIEJUSuk64yMRWg0enphjd/ylXYfRlwfBFIAJkRjP28B3ikJyubhfy7L6Jvzn28Avev7g9NEIlXctrbmr/Bp25vbdUTAFYEIkxnWrmcDz7LMDTBYrHnh/E36z4yDK6pu83TWvSowIwwMjh9gdf/6bQxD66DCYAjAhEpPLOIR3KrreKmKRwjOb9uKbshrobTZsOXPZ9QkSWzV5uN2x78qvYdvZvjkKpgBMSABI1mraf67VG5jO2Z1XhOcOnWl/vf504E/rGjcwCfOSE+yOv7bvuAS9kR4FYEICQHJ4xzzZ8sZml+0NFit+tfbbLse2l1bjTHGV1/vmbT+5wX5hxuarlTjZB3dPpgBMSABIi+pYfHHpmutc7vvfn8YJBznfd78P/HKPN40YbLc8Gbg+I6KvoQBMSADIiI9u/7lAb0BNU6vT9ht6SDesOXPJ5blSk8tk+PVc+92TP75YhIMFJRL0SDoUgAkJADnJXbceOltW3WPba82t+KasxuF7TVYea4Kg3OPSUUMxO8m+4NAfNu4G34dqRFAAJiQAjBrQtfzk8aLyHtseyC/pMm+4u9cOnkFLp9KWgUjGcXhmyXS747sravHGnhMS9EgaFIAJCQD9IkIxKa4jL7qnoLjHtocL7YNzZqddiIsMRnx06Kx3O+gDk9P745ER9vOCn9x2AL/4dDvKA3xeszdQACYkQMwbMrD95x0l1aht1jtsd6TYPgC/fOusLkH4n3tPwGCxer+TXvbHpTPQX6vucowXBPzzxAVkPv8eHlyzEbvzinrtQg0KwIQEiHk56e0/84KA7Q6W6JqtPA5W1dkdHzMwET/vtAdbXnMrPjx4xq5doEkID8XfbrJPRQDXty9ac/4KZr+9Hje+9CG+OJoLi5X3cw99iwIwIQFiYloKssI7SlF+cfKiXZuC6noYuy1VbivgvmrScAzpVMj9he+OBnwuGADunJCDT1fMtauW1tn+qlrc+cVOjHvuXby77ySMvWRLIwrAhAQImYzDXWM6tqLfWFiO3NKusyEKr9mPfkclxgAANColfjajYxSc32rAG7uDY4XZivHZOP2b+/Di3EldPkS6O9fYgh9t2oMxz63BO/tPwWwN/DSLMxSACQkgd03IgbxTcZ5/fneky/sldfar5IbGx7T/fPfkEcjoVE/4+X0nUBkk28BHh4bgZ3Mn4czvH8SO+5fiiTGZSNGoHbbNa27FjzfuxqTn38O2s4FfA6MnFIAJCSADYyNxT1Za++s3zxXgdEnHhp1VTfbBNCO+Y/aETq3Ek9M7lvrWmC14fusBH/XWN5QKOWZnDsLLd85H/h8fwr6HluN3k0ciPcS+UP3phmbc9MEW/OTDLahtcfzQMpBRACYkwPz0xvHtP8sEAfd/sAXnfkhF1LXaF+pJjeu6rPfeqSMxJiq8/fW/T17EieLgrLOgVMgxJaM//nLLTJz7w4+w9q4FWDYo2a7dG2cuY9pLH2J7kO2wIX/66aeflroThJAOSZFhqL3WgKOV1wAAVUYzPjx2Ho0NzTheWomr3YLw/86ehChdRzU1lUKOkSnxeP/EBdiE6ztuFJZVY9WE4Xa1h4OJXCbDsH6xuGNcNm7PTgdvMOJ4pxkhtWYLPjp9Cc31TZiS0R8qhdzJ1QIDJ/TWCXaEBLEmgwkLXvkEh681OG0Xq1Sg+OlHoFYq7N579dujeGJbR/rhzaU34oFpo7zeVyl9d7EIv1y7C6cbuubGJ8RE4vVVCzEixb70ZSChFAQhAShcq8ZH9y9DhpMZAQDwi2mjHQZfAPjpzPFdVpr9afv3vW512cxhqdjzi3vwqwld95s7UtuA6a9+jnf2B3Z1OEpBEBKgonQaLMwchGOXi1GqN9q9/+TYTDy99AbIekgrcBwwJzMNuUVluFjfjGaeR/W1etwyepjD9sFKrZBjTtYgzBzQD8cLSlH9w9xnsyBgU14RKqtqcePQ1IBMSVAKgpAApzdb8Mmhs9iTX4wTZTUYFh+FZSMGY9WkkWBJ6TYbTbjjja+w/YcHeZ+umIsV47N93GtpNOiN+N3aXXij2/ZM0xJi8N7qJUiNi5SoZ45RACakD2g0GLHq7XXYWlyFFI0a3/98FZI7zZTobT47eg5PbtiDmk4r5lK1Grx/zyJMzRggYc+6ogBMSB/RYjTjwfc34sv8UixPT8GnDy3vMX3RG5TUNeIvm/bhrU41NTRyGd69ZRZu75YzlgrlgAnpI1QKOW4eORT1dY14/3whEpRKjE9LkrpbPhOh1WDJqCGYlBiLg/klqLdYYRUEfHX+CgbptBjZv5/UXaQRMCF9jSAA/9p1GH/edQTfPHIbRg9MdH1SkCurb8Jd72zA/qpaAIBSxmHz6iWYkzVI0n5RACakj9qZW4Bnt+7HVw/dhrhwnesTglxtix6LXv0Mx2obAQD9VErs+OntyE6Kc3Gm71AAJqQPO1RQihd3HsQHDyyDRqWUujseEQQBLSYzmgwmNBpMaDKa0GQwoclgRIPBDIuVx8WKa/j3qY4ynyMiwrDj8Tsl+wCiAExIH3foSik+OnwWL98+Hwp58KzNMlt5nC2rxrHCchy5WoY9heUodDBf2pXFAxOx9ie3Qy7z/wNJx0toCCF9xqRBKYjRheDlnYfw5JyJAblgoQ1vs+FYUTm+PH4Bn565jHIPC873UykRpwsBb+Mhl/k/HNIImBACAGgxmbHhxEUsGJ6BGBdLoP2t2WjCx4fP4T/7T+KcB/WNh4SGICs+CqOSEnDjsIGYOChF0g8cCsCEkC6uVNdjUHyU64Z+9LNPtuEVB1s09WRkZBhy+sVgSFw0MhKikRF//X+RIRrXJ/sRBWBCSMD7+swlLPnw6x7fnxgbiampyZg4KBnj05IwMCawlhz3hAIwISTgCQIw++UPseeHGslt5ByHY4/fGfBlJ3sSPI88CSF9FscBT8wcZ3ecFwT8bet+2IJ0HEkBmBASFG4eNQx3DR1od/yzyyV46rMd4G02CXrlGUpBEEKCRm2LHgte+RQnHBSWvyU9Bf++cwH6RYRK0DP3UAAmhASV/Op6LHntC1xysAvywBANnl0wBSsnDg+KSm8UgAkhQedSZR1WvL22xznB81Pi8X+3zAqIimfOUAAmhASlioZmPPTRFnx9tdLh+3KOwy8n5OA3C6cG3PzfNhSACSFBy8LzeH7r93hm3wnwPYSyDJ0W/7hlFhaOGOzn3rlGAZgQEvT2XbqKn36+E+ebel6m/OcZY/DbRdMglwXO5C8KwISQXqFBb8QzG/fg1ZMXexwNrxw6EP9dtQhhGrWfe+cYBWBCSK9yvqwGL35zEGtyrzh8f1ZiHD58cBkSAqAIPQVgQkivdKa4Cn/f+T0+zrtq996EmEh89fByJEWGSdCzDhSACSG92tGicvx9+/f4qqC0y/HxsZHY9MgKSbdjogBMCOkTDuQX47lt32NLcce0tTnJcVj7yAro1CpJ+kQBmBDSp+y6cAV//vpA+w7JP87JwH9XL4YU6+YoAJNeRzA1Q2iuhGC4BliMEGwWcHIlOLkG0EZDFhoPaAOr4LhjAgRzCwRjAwRDA2BsBIz1EEytgCoEnCYSnCYS0ESA00aCU4VfLxtGXDJZrHhu6wH85cAp8IKAf8ybjMfnTPR7P4I2ANe16PH5sfOizxuXmoRxqUk+6BGbz4+cQ53IjQOXjByC5KhwH/Uo+AnN5eALd8NafBDW6hMQWi64PIfTJEMeMxKKhFGQpUyAPHk8oNT6obfOCc3l4EuPwFp6CNbi3RBaLzGfy2mSoUiZBUXyRMhTJoCLSQd8PK7jq87CVnqUqa1yzH0AFzhzcAFg/+Vi/OSzHTjf1IIX507Cz+ZO8uv9gzYAH7hcjBlvrhV93m0Z/fHZQ8t90CPXalv0SP7LW7CILJu34a6FWDxqqI96FawE8AXfwnzmA1hLtgDgPboap4yEYuASKIcthTztRoDz3z5hAm+G9eIGWM9+DGv1Hq9dVxYxCursVZCPuB2cyjdP+y0n1sC4/xdMbUMfrQInV/qkH56oazXgqS924L3zhfj7nIn4xbzJfrt30O6KXOagHB2LDVfKUNeiR7QEmw5uO5cvOvgCQJkHmxD2RrbyEzDt/TOs1Xu9dk3B0gBL/gew5H8AWVgWVKN+DOXwOwCFD2sICDZY8zbDdPAF2JrPef3ytsZTMHx/CrKTr0A94VeQD78DnAQ7/wa6aJ0Wb993M8Z+exS/3XEQy8dkYmCsf7Y0CqzvAyKUNjS7dZ7FZsP23AIv94bNlrOX3Tqv3M0/a28j2Kww7/sbWr+c79Xg252t+TyM+36OlvdmwJL7BSB4v9C3reYi9F/cAcOO+3wSfLvcy1AMw57HYfh4KWwVp3x6r2DFAXh01ni8e9tsvL73hN/uG7QBuKze/aC05Wy+F3vCpq7VgE0FZW6dW95IAVgwNsC4djVMJ5+Hp+kG5nu25sO462EY1q724kVtsBx5Da2fzgJfuct712XA1x1C65cLYDn8qk8+VHqD28Zl44Fpo/12v6ANwCUN7qUgAGBdQQkaRD4I89TOc/nQu7llSklfHwEb6qFfdw+s5dskub0sOsM7FzK3wLjxERgP/R4Q/Pvvr51ghvHw/8K45THAapKmDwEuI95/M2SCNgBf9SAoGXkbdvo5DbHJg1H31Ya+mwMWeAsMWx6FreaARD2QQzXqXs8vY26Bft19sFz90vNreYHlyqcwfP04YPPPtwniWFBm5G2CgIseBqXN5y5jxfhsL/XIuQa9EesKStw+/2KrASaLFWplUP7n8ojlwAvujXzlIZDHT4E8JhOy0ARAoQMgAFYjBGMDbC2VEBoKYW04CVh7/rekSLsNXFSa+38AABAEGLY9Bb7qW7dO59T9INMNgCw0CZwmEoKhHrbWCthaSyGYyt3ulrXoS5gP50A1+Qm3r0E8E5S/0TXNrWjhPfvk3ni5BE0GE8K1vi9LtzO3AEbe/ZybTBBQ0diCVD89mQ0UtopTMJ1+UdQ5svDhUI19FIqhC5mmXgk2K4Rrl8CXHQNfvAeWsp1dArJq9AOi+92d+fjbsBZ9LuocWVgWlENvhWLIEshiey4kLjSVwXp5G6yXN7n1YNJ07K9QpN4AWeJI0ecSzwVlAK5qavX4Gk1WHrsuXMEtYzK90CPnNrk5+6GzisbmPheATQdfFPWwSDX8Cain/1bU1DFOpgAXnwVZfBaUo1dDbW4GX7ALlgtfQrC0Qp4y3p2ut7NVnoHp4B/ZT1BEQDP5aShH3cO0aIELT4Zy7INQjn0QfMkhGHf9FramM+z3E8wwfvNraO/aHJBzdHu7oMwBV3ppXuyWM54HRlcaDUZsuOx++qFNVR+bC2yrPANr6Rbm9upxf4R65tMez9vlVGFQZC6D9tYPEbL8U4+uJfAmGHf+kvmBmywsB7oVW6Ecfa9bK8bk/SdBt2oLlBniZm3w9UfBn3xP9P2I5/p0AN5wqRgtJrNXrtWTb3KveJwuAYBKL4z6g4nl4nrmtspBd0I15Unvd0LhWXrKevRN8PXHmdrKo8Yi5PavIIsb5tE9odRBs+hlqEf9StRpxmMvAIY6z+5NRAvKAOyt0WCd1YpvLxR65Vo92eyF9AMAVDX2rQBsLdzB1lAeBvWNf4Svax6IJTSXw3iCLX8t0w6Adtl74HRxXro7B9WM30GZfjfzGYK5GuYT73rp/oRVUAbgCoYArJGz/dG+9mEaotlowvrLxU7bhDBuEFjZ3HdSEEJzOWzNbIWWVIOWgwvt5+MeiWc6/ApgbWRqq572DLgw7xeI0sx6GpyK/e/GfPZNwNx3/p0FgqAMwOUMwegBxi2o11+6Cr3Z4mmXHPrm/BU0WXtOP9yYGIfJ/WKZrlXeh3LAtlr2OdPygdN82BP3CE1lsFxgy6nKY6ZAMWyJbzqijYZ69GPMzQVzNawX2fPuxHNBGYBLGYLRinFZTKPLGrMFey4WeaFX9lylH5bkpCMpnK0oUGkfygELTaWuG/1AFtHfhz1xj/nMR8wP3lQTn/BpiUbFqHtEjYItl9b5rC/EXlAG4BKGYJQeG4WFaWxf69wtkuNMi9GMjXnO0w/zszOQEBbKdL38plYEaeVQ0QQT+4dNwP2V2KywXmCbPSELHw5F+hyfdodTh0GVxT4rwlq+C9DX+rBHpLOgmwdsNFtQanQ9cyEyRItF2Rl2G/E5svZiEV708kqzXReuoM5q7fH9CTGRyEyKRUIE24aALTyP2hYDYsN6HjE3G03ILa9hul5yZBj6R0cwtWVVVNPAlKsOVamQkxLfcwOevUaB0FrpupEf2UoOw2YoYmqryr7LLwXKldm3wXTqecbWPPjSI5APWejTPpHrgi4A17ToXbYJV8ihUysxL3sQbJv2QOZimFRlMmPPpauYl53urW7i6zPO85hLcq7fK0HEjqzVTa1OA7AgAPPfXMc07W3VsFS8/8Ay5nuzeH7bAbzO8G3ikRFD8Ordi3p8n1Ow70zBlx6BYqiPcqhusBaxF1SXD+3578CbuJgMyGMmg689yNSeLz9GAdhPgi4Fca3ZdQBOCbn+C5wUFY6FyWxTe7w5G6LVZMb6S0VO28zPuV5hK7rJahoAABr9SURBVD6cLQUBANdcfPiEa9W4eTBbTnRTfonX50AX1DUwtRvubPQLACr2vxNL/lcQTIFTLc5awrYcWB49CbJw/+WvFWlzmdvylf6rh9vXBV0Arml2nR+M1XZsMX1TDttsiHUXCmF2MmNBjG8vFuGapef0Q1Z4KMYMuP5gJN7JiLY7lj/7ohy2UXyTlce+vKvM92ZxsZZt2tXwZOcBWBaRwnxPwVQJy7E3mNv7lKEWfN0RpqaKFP9tewMAimT2JdXW2qMQeN/MDCJdBWEAdj0CjgzpWI7KmlYoNZqw38WcXVZfu/gafnP2IHA/7F4boxORgmD4s8/NSodSxrYowZs7g9S26Jly8wCQ7SIAczHi6u+aTvwdfNkxUef4Ai9itwlZQo4Pe+LgfvFZ7I15PYQ6aXaN6WuCLwAz5ICjOlU4G5wQjSlx0UzX9kZtCL3ZgnUuprUtyOkIMHFh7PlOlhFwTGgIFjPO/ticVwSrm0XiuytmHP2OjY7o8gHpCBeaAFnkGPabC2YYttwP2zXf1/Zwhq9i31pIHj3Ehz1xQBsFWQj7Mw6hzv+7xvRFwReAGUaBEZquv+CLGb+Wr7twBVYPykYCwJ6LRahxsrAjLUSDSYM6vmKrlQqkaFQ9tu+MZQQMAIuz2dIuhXojjha6t02S3bWu1TO1G5PElpNXpot7CCQYy6BfeytsEo6EbdW5zG256FTfdaQHsmj2UbCtwbvpKeJY0AXg6hbXo8DuNX4XMAbgq3ojDnhQOB0ANrsYRS8dlgZFt2XSyaFsaQiWPzsAzMtJh5xjS0PszL3C1M6VS1VshVxGpCQwtVMOvxPgxFU2E4xlaF2/DJbj70gyQdhae5apHafLAJTsqSdvkUWmMrflmzyv4EdcC7oAXNtqcNkmUtv1F3dESgJGRLguzg0AWz1IQxgsVqy/6Ly4z8Lh9vnNBMY0RCVDCgIAkiLDMN/VTIMfbD7vpQBczTZ5P5uxX1x4MpSZ94nvCK+H8cBTMKy9278pCUsrhJY8pqay8FTf9qUHXHgyc1uhucKHPSFtgi4AX2MIwOHdvtJzHIcljA/j1uUWgHczL7o3rwiVTtIPcSolpg0ZaH88lG0mRBljCgJgn/1xvK4RFyuuMV+3J+cr2UbArmZAdKae9ivItKlu9cdathWtn9wA856/+qXMoq1RxPJpXaIPe+LkvmHs9w20BS69VdAF4IpW12vsdQ5yqqxpiPxWAw5dYf9l6sxV7YdlQwZC62C1XUwI2wi4yGCChbG28Pwc9pkEOzwcBevNFpyod71L9aS4KETr2B86cpooaOe9IjoV0U4wwnT6BbS8Pw3WY2/5dBdgMSNGLiTGZ/1wfl/2cpeCkW1FJfFMUAVg3ibgKsN28t1HwAAwcVAy0lw8fW/jahWbIyaLFevPi08/AEA0Y78AoL7F9TcAAEiLi8QNjJXWtuV69sS7oKYePEPOdfJA8SM/2cCp0Nz4TwByN3p2nWCqhOH7X6P1g9ng8zYD8H5+2NbCHrA4tTRbS3Ea9u3WbWaqB+EPQRWAG/UGpl/0MI39TgZymQw3Zw5ius+63ALYbOJ+SfdeuopyJyvLQuVyzBzmeHfdaB37Yoxahm8AbZYwjoK3ltWgotH91WQXyqqZ2o1Lda/mrXL4CmjnvAZwbLNFemJrPg/99tXQf34bbOVeXu1lZE9zyCR4AAcAnCacvTHfTFvW+0FQBWDW4OMoBQGwpyHymltxtEjc9CxXc4iXZqT0uANzlI5965s6PXseeAFjAJYJAnZ5kIY4W8Y2+hs70P2i44qs5QhZ8jk4NfuDpJ7wld+h9cs5MH79MwhN3pmGZzO5TsG0ERSefZC4TcX+QQ8AsNFqOF8LqgBcr2f7+h2mdhzQpg0ZiDgV286vW0WkIcxWHutcbG20yEkwjBKRF61lTEEAQGZSLCbEsH3d3e5BAD5TXuWyTVqIBhnx7F+BHZGnzkDIHVugSPFO8R1L/vto+XAyzAdehODpThAW9hKaHOd+OsUTnFxkLj3gan32PsEVgBlmQABAqNpxkNUqFVjmYBaCI+vO5TPX3913uRilxp4f8Gg4DnOzeh59i3kwVSciAAPAUsZR8OaCUrQwLiXujLcJOFzhOl84fWBi+/JrT8giB0B763sIuelzyCJGeXw9WFtgOv7/oH//BlhyvwAE92bACLxvN3f1CpnYwB9Y++z1RkEVgBsZHsABgE7d81e8BT08COvuXFMLjhezPdl2VUltfmqi0zKS3VfuOcMyD7qznh78dddk5bEnr0jUtQGgoLre6cq/NuM9SD84Ik+fg5C7t0Mz9QVROz70xKYvhHHXw9B/vBR8yWHxF3AzcPuX2IBKI2BfC6oA3GBgm0ak62EEDACzhqUhVM42EmBJQ1h4HutdfH1f7GJObkQIew64lqEWRmcj+ycgJ4KtvOMON1bFnS1lmy861s0HcM5wciWUYx9A6L37oMp53OOHdADA134P/bqFMO38PWBlf+ApSlAEa0CQBV258KATVAG4kSEARyoVkDvZCy5cq8aSdLZyhxvO5rscA+y/XIIig/Nf1HnZzmdfhGvVsDF+Pa93ca/uOI7DzdmMaYi8ItG1MI5fdf0tIU6lxOgBPty5WBsD9axnoFu5B4r+S71ySfOF19D6xW0+WREmValHQcyIllOBk7M9LyHuC6oA3MCQgohleMi2kHE2xMmGJpwpcT7Cc5V+mJMchxQXW//IZTIMcDJq76yO8UFkZwuHs/15iwxGHBFZnOdwcbnLNnPSkqBS+P7Bkyx2KLS3rEHIkq/EVVPrga3me7R+cSuEWobSjGK2FrKK+xbjLZyIwM+p2OaQE88EVwBmGP1FOMn/tpmXxV6sZouTNISVt2Hdeee/nEsYlwTHatnywLWMefDOJqQlI4PxQZ+YGsHNRhMOMSxBnpExgPma3iBPmwnd3dugnfEvcBrPdp0QWvLQun6ly5EwJ2dPf3g848JdIgI/p6YA7A+9LgCHqV3nreLCdVjE+JV4o5PlxQcLSlDoIiDOY/z6H8MYgOv04pfTymUyLMtiW4TytYjpaKdLqmBkmCkydbB/AzAAQKaAYtTd0N27F+rRvwXkbMWYHBFa82HY+COnS5k5BfscW5uRbesmbxOM7IGf07HX7CDuC7IA7Dr4hDLO83U2L7ezo3WNOFfqeKWXq8UXU+KiMKQfWzH4SC3bCKrcjREwwD7740R9E84z7qx8tNB1+iFDp0VWonSjKU4dAdX0X0O3ah8UqSvcvg5fexDmg/90ch8RAV7vefEjdwhGtprNACDTef+hKbEXVAGYZfSnZQzA80XsgLzVwSiYt9mwzsXX9cUiCuKEMRZlrzFb3Nq7bmrGAObC7zsZR8H7r7iuGTsnvb9X5v96ShY5ANqlr0O76BNwGvdW05lOvQSh3nGhclF1FlqkKfUoiAj8chGlK4n7gisAO1ns0CZEyRaAB8ZG4sZEtqpU68/Z54EPFZQi38Wc3IWM6QcACO9h9Z4j9W6MglUKOZZmOq5F0d02huloRrMF3xa7noI2fYgE6QcnFBnzoVu5A4r4GeJPFswwn3jL4Vucjn2Ub2vxTg1msWzNIkpMRqT6rB+kQ1AF4GqGbdRDHJR77Anr1j2Haupxsbzr6MFV+mFkZBiG92fb/QEAQhlHpwD7gpTuWNMuO8qqUN7gvDjP8asVaGIYiU+XIv/rAheWCO3yj9xa0my5/IXDVW+yUBG1dk2VECTIAwtN7GVW5dFszwyIZ4ImAJutVqZfeNYUBCAuDfH1uY6Ay9sEl+mHJdnpEPPNO5xh9kabRoZvAo7cMDQVsYwfUN+4SEN8X+D6l3lOchySo0RU4PInpQ7axa9CFjdV1GmCuRpCqYOVchHivrIL9UWi2nsD38A+8uZi2QYnxDNBE4CbGesU6BhTEACQlRyHsS7m6LbZcLYjDXGksBSXXKxIWygi/wsAoQ5KaPak2c0AHKJSYulQtloY211Mr9uXX+zyGgud1L8ICKpQhMz/J6Bg+zfQhnew+SaniRQ15c1W7/80hK32PFM7WcQIcOoA/eDsZYIoALNNIteoxC2fXMo4Ct5fVYvLP2w86WxuMHD9yf94xq3h24Rp2D843A3AAHsaYnNBWY/3qW81YFeJ6wpo8wI9AAPgogdBPfIxUefYah3/95fH5LBf4xrb/nHeIhgbYWtmC8CKhPE+7g1pEzQBuIUx6GhE5IABYD7jqjgA2Hb2MmyC4PChXGdLswY5XQ7tiLMCQt01G9yvvDUrk60WRgvPY98lx0/891666nL+76iocGQls2+BIyXlqHsgZscNm8Fx9Td5bCbzNayVXi4I74Kt8jRzW3nSWB/2hHQWPAGY4QEcAKgV4gLw2NQkDGPcFHPj2XwcLSrHBRe7E4tNPwDX0wOsWNMxjkRoNViSwVYLY9eFIofHv7vo+HhnixkXfgQCThcPWdwk5vaCxXHxdVk8+wiYrzoAwdTI3N5TfMlB5rbyZBoB+0vQBOBmE9sIWC1yBCzjOCxhDBbfVtTgX7uclypMUqswzY0n/2ICcJMHKQgAWMQ4PW77pat25VtsgoCtPYyMO3NVgCjQyCPFf2jaXSNhBHtjwQi+cI/H92S8GSz5W5hacroh4GKC679dMAuaANxqYswBu1H0hXWVGAB8esn5w6elw1LdKjwTIiYF4WEAnpedDg3DFI0Lza3I67Zl/amSSpfznzN0WkxMYxtlBwpOxHY9nMJxeU8uOg0yLfuHr/Xieua2nuDLjsHWfI6prXLQQlAhdv8JmgCsZw3AIkfAADAlvT/zKjFXWB9ydce6gATwLAcMALFhIVjA+JCw+3Sz7WddF+u5Y+RQKORB808LACAY2OflykJ6qpPAQZ58A/N1LMWb/DIdzXL6I+a2yqHe2e6JsAma3xIDw64LAKBRih99qhRyLBnKtkrMmWiFAjcMS3Xr3BARszeazZ5vf7OYMQ1x5ErXALzRxQNIALh1zDC3+iQl/pr91LKeyKJSe3xPkTZTzF1hPvmuiPbiCfVFsBR8ytRWHj0JsqTRPu0P6SpoArCeMQCrRD6Ea7OAsWauMzcN6Y9QEamEzrSM9YABoNULAXheTjpTEfgDnbZlulB+DUdqnY8UJ8ZGYZQvi6/7gFCbD1vTGeb2zh62yQfNBhTsdSHMF96G0OS6poa7zEdeBQS2fy+qsT8GpR/8K2gCcCtjAFa7Wfj7xqGpiHYzeLe5SUTth+60IlInLYzpGGeSo8KxkGGa2PmmVlQ2Xi9juD3X9ej3ztHBN/o1n3qPvTGngTy552lanDoMyiF3sF+P18P07R/Z24tgKz8Bc94aprayiFFQUPrB73pdAFa6GYBD1SosHux+8e4QmQxzPJh6JSZ33WK2un2fzlztVdfmctX1ea8bzlxy2fbm0UM96pO/2cpPwnz+Teb2itSbAZXzPfZUo+6HmHnFluIN13dk9iKhtQaG7U8AYKucp576G4D2gPO7oAnABsZRn5Jxw01HFrj5AA0AFqUlIUrE9vLdKeVyKBkXbzQzzol2hfXPe6WmHhfKr2FvlfPdL5amJWFgbKQ3ugYAsJ7+CHzpEa9drztbQzH0Wx9m/ooOAKps1zWFZbGDoRx8j6i+GL99HJaz3gnCQnMFDGvvYl/51v9mKDLme+XeRJygCcCtFsYUhAcBeG5mGnMQ7M7d2Q+dRTOOgpsYvw24Mig+ClPjXecrKxpbsP7kRZft7p880hvdAvBDENn/e+jXLoD+8xXg8zZ5dTNLW/lJGL5cDqHVdVqljSJ2OuSMD9lUU38ursaEYIbxu4dh+vZPHu3GzJccgv6zxeDrjzO155QxUM98xu37Ec8ETQBmnQXhyeaP0aEhWJzGXlawjZzjME9EZbWeRDAG4Bov5IDbLMpy/cHRZDDhs9POaxdkhumwUMR8alfMx94A+OslMfnKXdBvvxf6t8fBvPtZ2MqPu721u9BSBdPuP6P1q4Ww6dn3vwPkUE3/HVhL3MnC+0Mz7jei+2c+9wpaP1oEa/5OUX9GobUa5t3PQr9+MWz6Qubz1DP+Cllk4JUM7SuCJuljsLDlPT3dfXdR9mCsKxC3M/D8lHgkRrq/51gb1lrGLTwPC897lG5pMycrDf+z+6jTNgevVuCsi/rAD04c7pX+AIDQUgnz+XfsjtuMJTCdeRmmMy9Dph0ARcosyJPHQRaXBS56kMMKXgJvhlBXCL7yFKyF38F6dSMguFHQfvhjkPdnX64MAIpxP4LiynZYq8WteLM1noLh6zsgC0mHIm0B5MnjwekSINPFgQuNg2DjITRXQWithK2hGHzRd7CUbQN4cX8u1eD7oGRIqXhL63vT4c1ZFsrUuVDP+nOXY7Zrl2DY/JDD9tplH0IWnojW92cDAFQj7oNyzH3t75sPvAjL5U0AB+ju3e21fjoTNAHYaGULwEoPFwDMzx4EbNwt6pxFjA+zXAkR8eFhtFi9EvBGD0hEWojG6eaieyudb2UTKpfhrknsdRBcMR/tGP32xGYohvnyGuDymvZjnCoenCYOnDwEgs0CmOtgM5SB9UFUT+T9ZkM147eiz+NkCmjmv4TWz+ZDMIvfB86mL4A591WAfYoyM0XifKjn/tX7F3ZCaHH9EFfU9Qz2NSs4bRRUWddnoZhPvw7BZoZ69OPX39PoAAjtUw7Np9+CcvRqgJNB4M0w566BYBQ3+PJU8KQgLGxfxzxdgZUcFY65KeJ2hJ0noqKaMyoFe99NFs+CShu5jMM8D3etuCcnAwnhzmcGsBJaq2A+/7Z755qrYWvKBV9/FLbGU7AZiuFx8I0aj5DF/wUnZ6/X3BkXlQbNnH9DzKwIX1MkzYPm5jcABdtO3MGE08VBOeEnUE74yfUPY2VUp9cdzzsUKTfB1nwe/NX9AAC+cA8EYxnk0eK+5XgqiAIw4wjYzYdonbGuEgOAGQnRSI9jn3jvjJgHiKzfCFhMy3B/+h0APHSD98oXciFx0E5/DpxK+sUcsrjpCLntYyDEs12dFRnzoJ33NiBnrzfhK4r+S6FdtgacyvOUWTCT9xsLedR4WM59BgCwXlwHecwUyBKG+7UfQROA9YwBR+GFr+XzRARg1rm0LMTkr81eGgEDwCQPCueszkzDiBT2ve9c4mRQjLgTunt2Q5n5Y0g1clQNfRC6FZ8BWraNW11RDFsK3a2bIQsXUTHNB6ylO2Da8yxsDa53NOntlFm3w1K4DraaPFiuboQyy3/58DZBE4CNjCNgbxSBGdIvGpMYR7XeWMLcRswqPta/DxZp8VFID3FvDvPP5/rmKxuni4dm7nPQrdwHRdrt8Fcg5nQZCFn4CdTz/+71r+iyxFHQrdoK9dg/SDcaFoww5/4XrR9MgnHnbyXZmy5QKIYtAWCDYetPAZsNyqGL/d6HoAnALX56CNdmCcO0stHREchOEpcvdkYlJgXBey8AcwDGJon/mn1vlpdHvw7I4oZBu+Q1hK46CFX2o+BUnqUDeryPdgA0k59D6D3fQj7Yh4sSlFqopv4CunsOQpn1CMBJlIcVjLBceAMtH06CafuvIdT5f486qXG6eCgHLIGt4SQUqUuBEO982xEjaAJwA+NXboXMOyMlllViN3th7m9nYlIQ3noI1yYtRvwKtp/PnuzVPjjDxWRAPftZhD54Gtp5a6ActNLzYKyIgiJ1BUIWfATd/YehHP9jl8uMvUUW3h+aOX+F7p5DUI//E2QRo/xyXzuCGea8t9Dy0RSYtj0FoVbM3Ojgp8y8tcv/+xsnCC429woQFyvYpvEMS/TOCEkQBORVOt77q01iZCgitN4bwZTVNzFvN9Q/OlzUPnKu/GXzXvxpL/s+ZQ8PH4z/3HOT1+7vDoG3QKg6C77qHPhruRAar4JvugrBWAlYO233o4gAp0mCLDQZ8vCBkMUNgyw+G/LE0YDCvdkNvmBrKoFQcRp8xUnwtXmwNV+FrbnA4bxlTpMMeVQWZNEZkEVmQBadBi4qDZxSC/OhV2DOfQ3uzQCRQzn4bqjG/xQylq3pDfWwtda4cR/PcepQcGE917UW6q8CsIGL6lxqVoCtNh8ybTQQEgPBZoVQXwhZVBogU0BoqQJMzeBivLeoyJmgCcDEt576fAdePsZWO6CfSomjT61GkhcWn/iMYAN4CyBXMa9eC0iCcH1pslUPwaIH5OrrC05c5KeFqlwY9j4DvuIbN28shzLjLiiSxkMx6m43r0FcCZoUBPGtM+XVzG3/d87EwA6+AMDJro9ugzn4Atf7r9QC2hhw4f3B6eKZHg5yCdkIWfEZtPPWgNMNcePGPKwVB6HIWubGuYQVBWCCq7UN2FnhPN3SZmp8FB6cTrsmBAcOimFLEbp6F9Tj/gDIxX1oaqb83m858b6KAjDB63tOQMaQiZJzHP52yyyv1XwgfqLUQTXlF9Ct2gtFGluxeHnCLCiG3ezjjhEKwH3cyasVeOkI2465/zttNKake7ZqjkhHFjkQ2iX/he7mDZBHOVu9KIdmxh+CP30TBCgA92GVjS144MOvYbG5rrMxJzkOv1041Q+9Ir4mGzgd2lVboZn2Eji1/ZJv1dAHIEuUaFpcH0OzIPqo0rpG3PH2ehyqqXfZNkmtwp7HV2IQQ/F2EmT0tTAdfAnm3DcA8OCUsdCt3n/9YR/xOQrAfYwgCNh4Kg9PbdyDK60Gl+1DZDJsun8pbhya6vvOEcm0TVtTps6GcvzDUnenz6AA3EtYeRs4joNcZp+3EwQBhTUN2H3pKj48cg57XNT37WzNspm4Z4r3thoiAUwQAIGnzTn9iP6me4ljV8sx9421SA3VIkqjat/mvtVkRX5TC2rc2Efu77MnUvDtSzgO4Cgk+BP9bfciepsN55tagaZWj6/1rwVT8egs+x0HCCHeQwGYdBEql+GVJTOwego9BSfE1ygAk3Y54aF4++5FGJfac4ETQoj3UAAmkHMcHhuTif+5aRpiQqXfNoeQvoICcC+hU6sQrpCjycpegtDGcbg9PQW/WTAFYwYk+rB3hBBHaBpaL1LfasCWM5ewNbcAO66Uo87BLiJyjsP0frGYObg/7pwwHBm0uIIQyVAA7qXMVh55FddQXNcIo8WK8BA1onVapMdFIzKk921HTkgwogBMCCESoWI8hBAiEQrAhBAiEQrAhBAiEQrAhBAiEQrAhBAiEQrAhBAiEQrAhBAiEQrAhBAiEQrAhBAiEQrAhBAiEQrAhBAiEQrAhBAiEQrAhBAikf8PATHP++RApXYAAAAASUVORK5CYII=;" vertex="1" parent="1">
          <mxGeometry x="25.17" y="310" width="59.66" height="40" as="geometry" />
        </mxCell>
        <mxCell id="fJBAHvxhCO_1ta349B0q-5" value="" style="html=1;dashed=0;whiteSpace=wrap;" vertex="1" parent="1">
          <mxGeometry x="160" y="290" width="160" height="70" as="geometry" />
        </mxCell>
        <mxCell id="fJBAHvxhCO_1ta349B0q-6" value="" style="shape=image;verticalLabelPosition=bottom;labelBackgroundColor=default;verticalAlign=top;aspect=fixed;imageAspect=0;image=data:image/png,iVBORw0KGgoAAAANSUhEUgAAAUwAAABUCAYAAADpnA4dAAAACXBIWXMAABYlAAAWJQFJUiTwAAAgAElEQVR4nO2de5BU5Z33P7/ndPfcLwy3gYFBEBURBUGRS4wXlKjRNaJWNtYaN16S9zXeSrc2sWqrNpXaS9WuVbtWyk3UzZraJLomMbESXS1FjUDMi8pFbqIgIHcYYO4zPd19nuf943nO6enpnrEHmpueb9UAc/qc5zx96PnO7/r9yT333GOIECFChAifCXWyNxAhQoQIpwsiwowQIUKEIhERZoQIESIUiYgwI0SIEKFIRIQZIUKECEUiIswIESJEKBIRYUaIECFCkYgIM0KECBGKRESYESJEiFAkYqVa6Ow79gAgIoBtHjKAAMYoEG2PpYRUZ4KuXRW0f1xBpmdozo5VaM64tRUjCm0UguDjoYygBYzxAMEYQac8/A5F906heyvo1NBNTJVnJKheUIVGIUbQ7veHQQH2e4MCI5ABvzVDelc3qe2dmLQ+hqcVIUKE0xElI8yy+iTWYNWAwtKJdkcsESkDiCYxppfaKe2MXeDR8v5IWt6rCTg2D6KEeJ3GF41HDGMUMXwMCt94wVn2ywh6tKH8TI+6eUL7/9N0bhqC2OKC1MXxHOEKCjEKIwpjFAoBY0lTA15DFWpKPWVzNcmVB0htaS3Fo4sQIcJpgpK55EYsVWrAOGtSOaIRsZSjxZKnMspadQlN4/yDnPHVQ8ggOzFYi0+IWVITweBhjGcJDWdh9rMIDYJUKOqvSDDi0sQQe3bWY2hdemgEbTwMgjEKLQqMAmIYA4igKxLEL2um7KJxpXp8ESJEOA1QMsIULeGSYkAMGDGIse6uPcmAaEeiGmUMoKg6s5PGS9sHXVuLwhgBFMaRmUbwnQWoEYz2nCXogQHRljwrZySomTkEaRqFNp7bt72HYBxJqpA0jdtHQKaI4F3YSPzsUaV4fBEiRDgNUDoLU9nFQhdcaYwx9m/RzrI0KKNshNDY21tbVBgxs42K0f4gi4uLJap+BOcheBgxLkZqLU2FwicGIhgDIlB9STmqKv+tihG0iHXBXWzUoMK/A1ffGNBGoYy1ZAM3HTxil0xEEiWLbESIEOEURuksTGPQol2mx7gYoCU4E8YnLZ1qQIu4f4k77tFwYU/BtY2JWTdcrDUpBmtlGs8lfWLWAkQwWoEofAQxnj3HE6qnl+etqwFxSSPRNqFEkOgBZ83avSHOesVay9rYe5myBLGzR5foKUaIEOFURgnLiqwFqG1a3FKjmNDqVC7Cab1zjbUZndvriKhqcjJ/WZdq10aB9jDiocVamAF5Be66GM9ajFrAePhijysU8TMKueUSxixB4eNcf2PJUQeJJHDE72KkYi1aI2Ld+IkNpXuMESJEOGVRMl9Si0EZgxZrp2m0S+5kkz+IQRn7OgYy4lnCMcpeVwZeucFPSs7axgg2K6QQ7bkYaJDo8WwiBg8FGDxEyFqYzmqM1eSuGa6NoIyQcesJnou/2tilMir8HnGxUrEsro1156mtKNVjjBAhwimMkiZ9bJzSusxKe4BGxDrLwTlGNL4jOtHW3Q0y0mIsYQ5YGS2ei12KIyuF0dYVt4kaD7TY2KVxa+kYQa7eACbhFcjE22utmy+ItravFoXviNwYwXcxTmPEWZV2PxIQftngSaUIESJ8flAyC1NEO8sysP58lFHOozbhOdp4CDauaRDEZN1yZ3vmwTiX2bhsuc1SOxoWcUkfCMqLjMtqWxfdlQ4FtZoDCz5NrqVqgkSP+zuIa2oXkwVrjQbJIBuKiKZ8RIjwRUDJLEw/Y+OHNpZoELGdOCLWKbedPp4tDDcKLTHAsxlpl3jReKhYLmlqH3DEaoxNFmE8MArlkjpgSVU7i9GYIGpqCc640AAD1jYZ40qWPFv3jrNitc3Ag+AHnT4ofBO48LYESQX3MoWJPkKECJ8vlIwwM11xWzZEkCAxiGhHKNgkDMqRqqBMrF95jiVBMYJXnbuu7gOdsgkWe46HwcMXDx9saZFz68UElp8Ki8x9Y91+MTG8Si937S4fbRRGxJKmc++NSJjkCeKj2Wy+cuTs4RsbnzUSEWaECF8ElIwwu3dVhY2QRtkMuBjlOnxcttpln42J44ux2XEjYUbaF4VXle/eJve4DLYrKwIcucVcXWQQi4zZ18XFRo0lY9+RtFedS5iZw31In42JarcPE5wvrkZTey4M4DLkrocdBJFsJj1ChAiff5SMMFs3V+Jy42FMzxYS2fijdpaauIw4zoVWeC7Oac+raMonzK6PxIljSFg3acJkkS04B2fImizBhee7LHhsfGXOukYbMls7nKXohXFLpRW40iQtgkhQS2qPqdCKzb1/hAgRPt8oGWH27E3QtXWEixwqtMuQi7PybKui6/c2QXbcIy2u8NwoMB5Vk0xeNrt7qya5P+j1VmiXqwosSLCutzIxAtdZ5/xtY6De5AH+PtC7+jCkbJulcnvwUfgqSPwE1qe1jv2wE8ipGkmQTIoQIcLnHSXVw9y9tJ7k4QpX+uNhTMy54DH3b1dLKbaG0VpzrvUQ5wKXGarPzl/78KsZdFfW/bVxxIA8BcRztZSOoF3pjy2Kd2VAdQniA6xM3Zsm+cZO0OCLhAl10Z4rKwLwnGxdv3CAiTkrM0ZEmBFOFMrLy5k6dSrV1fm//CMcf5S0CdrvU2x/oZGJ1xymsrnXuswoK8IRZqwDgnGudb+sdyB2UXcJdG8JMuQWmW7D/hf6GHltObFRMUts/clTVCgA4vdTMLKZbsKuovK5Y0i/uCNn35ndnfDKNuJXnokpT7gCdluPGZQPGR0jKJDSKJQEAh3W0j3VKHPWrFnMmjUr59jSpUvZvXv3SdqRRXNzM4sWLco5tmrVKtatW3eSdnT6YNGiRdx6660opUgmkzzxxBN89NFHJ3tbXyh4c+bM+UEpF9QZoW1zFakjFcTKhViNAeMyz2RJ0YjrBReXZTbixDQUkrAJleTu3HimSRl6PkyjO0FVekilZ1sUsVqWBjASELKgjIcvyhbIB/evSkBPBv9Qbhum7kzhb27B8w2mstwVo/fbMzaWiUtUGYmFvxC0r1HrPynlYzxmXHTRRVx11VVMnDgx/Fq3bh0HDx48qfuaPHkyS5YsydnXnj172Lp160nd16mOsWPHcv/99ztPB2KxGHPnzuVPf/oTyWSBluIIxwXHTWanfUuC9i0JvDjEqjXKaV8oD7xqiNcYyicYysZrNDGUy04bbcmveo6QOix0b8nkrGsMdG/uo3tzHyqh8KoUUmaTNFImqMoYUhMnNrECb3TMKRJlSQ+jiC+YgN+WJrOvK3ftlE/f6j2weg9SHkeqysALohbikkqAa/+0LZ6Cpw2R/nqE44lp06blHYvFYowfP562traTsKMvJo67LpmfBr91kFDpe+CVQ+0MoeZCgySkn9KQYsQVCqOh55NMwct1SqNTg1DV+614lTHKzx+Bd94IiInr1gGjPBJXT4bXt+eRZgCTTGOS6aLeY9TnE+F4o7W1sLp/KpU6wTv5YuOkD0Hzk9D6vmHPz6HnY8/GM13Xj4kJ9YsrqJ1bPqgi+5Br92ToXtlC1/Pb8HdZ6TjbWQSSiBO/dhrx6WNK+4YiRDgOWL9+Pbt27co5tmrVqiiUcYJxyijf+kloeT1D3WGhel4MwepTGoSaOWWUn1lB57s99H7SN+y1dXeG7lc/pWLuONQFYwmSTUYp1IIplJ3VSOb9T/H3DK76HiHCyYQxhscee4yrrrqKUaNGsW7duihRdhJQMsJURdZua82QPmz76jTah9oFNqkSSKx5dULt1XVULTCkdqRI7U7hd/jo3gx+ykkTZ4aIJBpD78q9lBnBu6CRnLc+qhrvmhlIZwo+PYLe1wbdfZjuFCbjUvWZQdTgI0Q4Qejt7eUPf/jDyd7GFxolI8xzvrsfq9zj2Vk7QeeM8fp1wnhoDX5XjN6dHl2bDcn9+ezZ+UGaeEOcinMT2Zk9rlRIVXkkzotTfl6tlWDD9YGL2DKkTkPfrm5SH7bht+Zbo33v7aWsoQqaRhAUuQdqRVJdiZ5RDedNcipFQeumAt8gXb3I7kOYzTugo7tUjy5ChAinCUoWw9SuA8ZKn8WcspAT1xCw5OOhJEa8RqiaDmNv9hh5dQyJ51cxtq7oJd3tNChd22Q41wfPiWrY12zbpcKoGLouQfy8UVTefCblC8chasDaxpBatgPJGDt2wmTFNcK+cBOMv5CwU8ioGJm6WtLTzyLztatg9nmuy+fkQERQ6sSGoEWEeDx+Qu+plApLaY43TvR7+yLjWD+7nndy2pFLp4dprCSa9bht3aMVCJZQc1IgtD6tCpBQdZYi3hDn4O+S6FTW2jRpQ/eqJNVfqsGOjwjmOSq3Hra+09VgBoXv9na2ptObPoby+kqSr2zD6H5r96TwN+6HWRNtbWUg/9bPWhUj2b0ioRgxCFop+s6fRry2FvX2/zshephVVVXMmTOHmTNnMmHCBGpraxEROjo62Lt3LytXrmT16tX09Q0/xjsYqqurmT17NhdccEF4z1gsRiqVoq2tja1bt7JhwwbWrFmD75cmZCEiTJs2jS9/+cs0NzfT0NAQvs89e/awbt063n//fTo7O4/pPolEglmzZnH++eczZcoU6urqSCQSZDIZOjo62L59O5s2beK9994rus7xxhtvpKqq6pj21dfXxwsvvFDwte985zs5vzxaWloGPXfevHl5jQu///3v2bt3b1H7OOecc7jiiityji1fvpyNGzcWPP+qq65i6tSpOceeffZZOjo6AFsCNXv2bObPn09jYyMjRowglUrR2trKjh07WLZsGZ98Mngt84QJE1iwYAHnnHMODQ0NVFVV0dfXx+HDh9m8eTPLly9nz549Rb23Y0HpRlS4OkVxA8lws8eNm7UTivqKZGfwaCvE4Y30GLGogsOv5A5B6/kwSdUlNVbHUqycWraDJ6u/ae/fX0bOngcKGVdH4pKJ9P15Z87amQ37iJ0/CV+pUIRYxL0PE/ShO5I2gUK8u7+7b2rSRBIXdKI+2FCqx5iHeDzO4sWLWbx4MRUV+aMw6uvrqa+vZ/r06fzFX/wFzzzzDB9//PEx3bO8vJxrrrmGRYsWUVZWlvd6IpFgzJgxjBkzhgULFnDkyBFefvllli9ffkz3ra2t5dvf/jZnn53fGxu8z/POO48lS5awdOlSXnnllWGX1SiluOyyy7juuuuoq6vLez0Wi9HQ0EBDQwNz5szh5ptv5o033uCVV14hkylc3hZg3rx5jBw5clj7GYiurq5BSfDCCy/Mscw+/fTTQdeZMGECs2fPzjn25ptvFr2PkSNH5l2/efPmQc+fPHly3vnB+5g2bRp33nkn9fX1Oa+Xl5czbtw4xo0bx/z581mzZg0//elPc/5Pa2tr+eY3v8kFF1yQd8+ysjLGjx/P+PHjueKKK3jnnXd47rnnjmupVel8OrGTFQO5Ne2WVsFYCUd2WscwxrrUWklYRlR2Rpzy5lyXyPiGvp0pqxhkALGiwQTDylzXkHZti1qcaHBgbdqNoaaPRtUPUCpKpjEtnfbcfuMogmmXQfumbyDjjpigAN6okLT7ZsyAyty1S4X6+nr+5m/+hhtvvLEgWQ7EyJEjeeSRR7jkkkuO+p6NjY08+uijXHfddQXJshAaGhq4/fbbuf/++4/awho7dix/93d/V5AsB6KsrIyvfvWr/O3f/i0NDcUPoKuurubBBx/kG9/4RkGyLITKykpuuOEGHn30UcaOHVv0vSJYXH755Tz00EN5ZFkIF154IY888gixmLXjzj77bH7wgx8UJMuBEBEWLlzII488QiJx/EbGlI4wjWenOiJOEENhiFnFcgIhDNd7HYx40J7lKteTXTk9/wc0tTMNZEnSJyBjCYlLuQ4e8qTfbALKSIzYtAKjcHfZYmAbQjD9lN/t4DVxmpvKaTAFMU3bymnn/mjPwx/gipQCtbW1fO9732Py5MnDuk5EuOOOO4oinoGYMGECjz76KOPGjRv2tQDnn38+Dz30EOXl+SONh0JFRQX33ntvUT9U/dHc3Mz3vve9oq6rqanh+9//Pueee+6w7hFg4sSJPPLII4waNeqorv8iYvLkyfzlX/7lsOKVkydPZvHixTQ3N3PfffcNW2QkuOfxQkldcg1OLxIyQWwRhdYqFLII5vaYfokW47Lo8YlxkK6csiO/yw9dYsBZm1n1c3EEGo7XFdUvVqqQYOzEhJFArguju5LWatRu7VBD07VTmsDdDwSEAeeaGxTiBI398U14JayJi8fjfPe73y3o3qXTaVavXs22bdv49NNPqaqqYsqUKUyfPj0k11gsVrCVbijU19dz//33F7Rk161bx9q1a9m3bx9Hjhxh9OjRNDU1cfnll+eR66RJk7jzzjv5j//4j6LvvWjRopyEyyeffMKmTZvYvn07vb29nHHGGaHLF1gfAUaMGMG9997Lv/7rv5JOF+7MCp7nmDH5TQo7duzgz3/+M3v37uXgwYPU19fT1NTEvHnz8n7p1NfX88ADD/DDH/6woHu+dOlSKov0Ns4555yCv9Q+T5073/jGN0Ky7OzsZO3atezevZuOjg7Gjx8/6DO47rrrWLRoUc4v3r1797Jx40Z2796NMYampiamT5/OxIkT865fuHAhr732Gvv37y/5eypd4XroBqsctzYYVBaMrtAIRgcZbkF0diwunsIrV/i92XpK3W3TPYHumuC52edukqRYa1CZ7JC0YEa6GAmTOao63+qRnrQlSyEsUQqNbiceTKC2bpyCkVH4gp0xpBVGIFVVTSmdgMsvv7ygZblv3z6efvrpPMWh9evX8/vf/55rrrmGG2+88agykLfccgsjRozIObZnzx6effZZtmzZknO8tbWVjz/+mGXLlnHllVdyyy235CQjZs2axbnnnsuHH35Y1L0DssxkMvz2t79l6dKlOa8HyYBJkyZx991357nGZ5xxBpdddlnedQEWLVrElClTco51dHTwP//zP6xatQrTL2nX2trK9u3bWbFiBXPmzOGOO+7I+cFtbGzkiiuu4PXXX8+7zxtvvFHU+50yZQpf+cpX8o6n02n+67/+q6g1TgcE4Znly5fz29/+lu7ubCneqlWreOmll/jKV77CkiVLcq5LJBKhW51MJvnd737H22+/jda5ddYvvvgiN9xwA9ddd13OcRHhS1/6Er/5zW9K/p5KWJdixzrgxtJqcUrkTlk9EPu1WWhHrBIosQd1mwpJ5G7JpIxVBJJARANXWhRoU3p2VIQE9ZSuxAghI3ZMhkbQyssrMTKpDD7iyNILXf0MdkSvaJcACuo9sSEECcbtYq1SiRcX6ysGZWVlXHPNNXnHP/roI/7xH/9xUHk2YwyvvPIKP/rRj/I+WJ+FiRMncvHFF+cca21t5fHHH88jy/7wfZ/XX3+d1157Le+1xYsXD2sPvu/zb//2b4OSHtgkxz/8wz8U3NO1115bMHZVWVmZ9zzT6TRPPPEE77//fg5ZDsSqVav45S9/mXf86quvPupSp8bGRu677768vWqt+elPf3rMCbtTDW+//TY///nPc8gygDGGV199dUiJumeeeYa33nqr4Gfa931efPFFNmzIT7oeTUiqGJSMMI3xQGflz7JKvCocd5sdTxtkz/sVnocWXqG1xVqsWmVjocYJDjtL1ZhAlNjJu7n1tHjZcbsFH4AKM+zB2IlAoV2LConYJoCCURlWHcmGB5SL05YG5513HjU1NTnHuru7efrpp4ty1zZu3FjQ+hkK8+bNyyOAH//4x0Wr4Lz44oscOnQo59jZZ59ddNII4KWXXhqSnAP09fXx1FNP0dvbm3O8pqamYHxy5syZeW7yc889x/bt24va18qVK1m/fn3Osfr6epqbm4u6fuB1Dz74YMG43HPPPcfq1auHveapjJaWlqKsvMEs8+XLl7NmzZrPvP6ll17KO9bY2PjZGzwKlK5wPR2MkHDWWjBbJ0iUaA+l3exvZ1UaY4vdcQXuPoLEc7fkp2xxj29wQ9ACsnTjcfuNqSDsKMoOLAvjpEZBPDcCYVIZMmG3TzDR0s0gCpXbbSY/g513bjPm9t++yVqlpcL06dPzji1dujSsZysGr7766rDqMWfMmJHzfVAbVyx832fbtm05x+LxeMH4UiH09PQU7c4CtLe3FyyRKfTsBr43gLVr1xZ9L6AgkQ83GVdRUcEDDzxQMC79hz/8gbfffntY650OWLlyZVGfw507dxY8/t577xV1n+3bt+fFlIebeCwWJSPMVFfWFTaOUIxkCRTBZZo996XQ4qGMgLHD0gQPNWCyIxmN7jUE3UPB2NtsHDSY5Jj9d9DqaOeeg7hEkFQOeIg9fYjGWY2em2qJs1TBaDflEoXnxlVI0FVkLHFm46ulQSHL5d133x3WGt3d3UPWzPVHIpHIS9wUa331R6Gi4dra2qKu3bhx47BFcAv9ME2YMCHv2KRJk3K+P3jwIF1dhSX9BsOxvDewSbh777234P6WLVv2ue0PL7ZIvr29PS80YowZlEgHwhjDkSNHhr2/o0HJkj7JHR6xETZeqFw9IyoYeBaoodtxD2IIR0yELraLDXrVcSDX3crs7sE7qz6cNmlcvDQYQaGx4ylMcMwEcUYVZs6NAWoqoDXbIWJ8H7W/jcy4MWhxMctQJclZw0bCzLx9b0FvezDFMltzWgoMdNe6urpoaWkZ9jo7duxg5syZn3neQPcfYPbs2Tz11FPDvudAFFuTOVQB9mDYu3cvfX19OW5/ofcy8NiYMWNO6HsTEe666y7OOeecvNfWrFnDs88+e8x7OVVRbJba9326u7tzPvsdHR309PQMcVUu2traClZBlBol+0nv/BCMtrFGHw8VkKPzljUxN0HSQ4vniM+VA7k4oY9HbGJ+WUbfh21oI3g6qK8Majq90KrVYYbcwyeWJWfXAKQlhjTlu0Py0Y7QZQ+Izw/uYQTpR5ZeQPCueF7lzA4qDQb+IBYKlheDYj9sx3OYVrHZ+oHxyGIx8D0OjFV6nldUwf/RoNj39vWvf505c+bkHd+yZQv/+Z//OewE3emE4YSFBrbWDrfVtlStuZ+F0rnkrYbO9ca6yqKyGXLj4Rs3N9wEsUUroKEhO2dcW8tONVXmxTEz+3vwt3Tgh7Wc1m0O3HJbygRBskfoZ9kaz02uBN2cHwg2O/YS33eoXybcErGIwcZOVUimvsScVenqTnWQ4S+dhTnQNR1Yd1gsiu1kORXmwQy3YD3AQLGMgcTr+/6gtZknAtdeey1XXnll3vE9e/bwxBNPnPC9DSezf6IET043lFRAuO0dH68hTlmT68UWEK1QLsljhzpms+ESlhwFxe4KUULZ9HqSH+TGJHpX7KGqtgIztjpblkTW+rPdROLcdgjCALhYo49CV1agpozHbMuNrcgfV+JdewWZuhFhL7lPVqkILNl7RkirgCCDnnIJY56lQGdnZ049ZG1tLfF4fNg/XMV26xSK57W3t3PgwIFh3a8Qis2yH01Gs7KyMs+iLCTI0dnZmdM+mUwmi46NDYXPej4LFizgpptuyjt++PBhHn/88WG5m6XCcLyJ0aMLdMZFKC1hGg2HX0pSv7CcshledmqjI0XtCr6DOkot1vJTRtxMcVuYXj5zJH2b2zF9/efsanpe3kpiQTOcPdrNNrcTJ0PSFLCKReKEOqzbrwIXWwRmT0ft2I/p7wr1pYj975uwcB6Z5uZQmi5UJ0KFffKis6IcviNtr4S/jffv35+T+InH40ybNi2vtGUoiEjBBEMh9PT00NnZmRPra21t5bHHHit+08eI5uZmJ8pSvOrTjBkz8tziQkmGgwcP5vWb//u///tnCmkcC2bMmMHtt9+ed7yrq4vHH3/8hAwtK/T+hiMMMn78+FJu53ODkgsqGg2ty5Mceb6HnvV96A4DWkKyMeKsPQky3Z5zcxWinatbHqf8S/kWkvE1fct3kPndJvTGg9CRQtI4lztbz2k7f2JWsCPoNgrKmGqq0LPzy09IpYm9tZyyV18jtm0b0tkN2oTdSRjJ6QayWXKbWTemdNp8hbpjChWyD4VLL720aAvBGJN3z0mTJg0rC3ysGDt2LJdeemnR54tIwWdS6NkNlCMrLy/nrLPOGv4mi8TkyZP5zne+k6fX2NfXx49+9KPj0q5XCIUs2GK9jrKysmGXTX1RcNxm+qSOZEityMCKHpsBjzn1orhCVSpUdYzYhEoSk6qgKm7LgIQw862mNFB2JE3fmnzXxz/Sjf/n7YAtfwk7eBIxpKIMaipt7/iERnSVHeEb1Etqo9AzzqasrROzNT87KwdaiB9oIYyOnWCR3g0bNpDJZHJil2eddRZXX311UQXpNTU1BV3BobB27Vrmzp0bfi8i3HbbbTz11FNFJyXKy8upqak5qow+wE033cSaNWuK0rn82te+lmdB9/b2smnTprxzP/jgA5YsWZITk7vlllt47LHHik42KaUYN27cZ+otjh07lvvuuy+vYN/3fZ588smjKtc6WhSaMjl37lxefPFF2tuHnl116623Fh0D/6LhxLCBAZPWmLTG78mQPpSib0cP3SsO0frLT+l+7QC6LWWz5sYWuQuCd9E4yi787N+KRhv7lUyjW7vQOw9i3vkQ86u3iP9xLdKeDIvSxWW6exdcBOcUoTKkdXFfJUJ7ezsrVqzIO37zzTezZMmSIZNA48aN46GHHhq2xNqqVavyyGD27NncfvvtRamQ19XV8fDDD/Pwww8fdQKnqqqKhx9+mKampkHPKS8v56/+6q+49tpr81578803CxLg/v3782o2J06cyH333VfUcyorK+Ouu+7i+9///pBWV11dHQ8++GBeGZMxhv/+7/8u2L53PFGo2D4ej/P1r3990M+QiLBo0SK+/OUvH+/tnbbw5syZ84OTvQm/LUVqUxvKB298rSsJsjFE1VSLaqjC7OvEDDXkbBCYtk746FM85ZEeO8pZsAqRGJmmJqiqQh1ogRNUllAMdnHpoYMAAA1KSURBVO3axfz583P6jUWEqVOnMmvWLHp6ekin0/T29hKLxZg4cSILFizgrrvuGlIf8t133+XgwYMFX2tpaeGSSy7JscSam5tZuHAh6XSagwcP5iWexo0bx5VXXsndd9/NqFGjqKysZPr06bz33nuDJqkaGxvz+tYD1NbWsnDhQjzPQ2sdJqSampqYOXMmd999d8H2x8OHD/PMM88Mes9du3axYMGCHPIfOXIkl112GYlEggMHDuRVC4wYMYL58+fz7W9/mzPPPJNYLMaFF17IunXrCibKvvWtb3HmmWfmHX/77bd57733wiRVMV9KqYJtsNdff33O/097e/ugos3JZJLp06fnfR7Gjx/PBRdcQHt7O5lMhmQyyahRo5g2bRrf+ta3+NKXvgRYoh+YKV+/fv2gHWBz5szJ+2X35ptvFp3cWrx4cU53Tm9v75C6AgMxf/78vDDU8WgIOGXG7GIMvWtbiB/pI75oEsRcbFN7MGkUsaYG9Pp9+Jv2Y5LDLMfQGlZtpKy1g76Fc20HktgCpb6pZ5FuPoPEug14W7fAKSCv1dbWxlNPPcVDDz2Ul9hoamrinnvuAeyHKh6PF7QYuru7h2Vpbtq0id/85jfceuutOcfr6+u57bbbuO222+jo6KClpYWysjLq6uoKFoo3NTVx0003FRStGAz9k07xeJwbbriBG264Aa01vu8PaeWmUil+/OMfD/mD2dLSwpNPPsn999+fE1usqKjg+uuv5/rrr6enp4cDBw7geR61tbUFLeXq6mr++q//mn/+53/Oe22wes/LL7+cyy+/fNC9FcKyZcv4xS9+MaxrCuHll1/mgQceyDs+ceJEvvvd7wJW9GPgZyydTrNs2TIWLVp0zHv4vKFkhJkY0/9DbX8zBd0zYFu+RQvG1+huH91X2KJL7+yAN3eSuGoqiJVYEwQT81AXNiMzJyMt7fi726Arhenpw6TdWqkMpjs5+EjcbbtIqBi9C+cR9JgrhEwiQeaii9Gz55I4sJ/4/v1IdzfS2wt+xiaP+vqgpxPJnJjauc2bN/P0009z5513DkoYg/2Qrlmzhj179nD99dcP656vv/46nufxta99rWBhdm1t7Wcmg9asWTNsWa3XXnuN+vr6vB9QpdSQBeK9vb385Cc/KapMaNOmTTz55JPceeedBfuMKysrPzPRsXPnTn7yk5985r1OFWzYsIE33nhjSOIr9Hyff/7541pFcDqjZIQ5YkktysmiGSfEG2STA7X0QCjYGA+/PU3m4w56NxyBAa52+tN2ZNVe5KJmIHeyoxEFYxswY0YS6G9mh5h5GG1QB9uQD3dgduSXmcjW7ZSNaKBv+rmAkBIVtnKKKDJjJ5Ic24wR3GRKFSoXiTYkDu6l6qO1xHZtLdWjGxSrVq2itbWVO+64o6gMpzGGZcuW8atf/aqg3mIxePXVV9m5cye33XbbsFrN2traePnll1m2bNmwyoPA7vv5559n37593HzzzUV15+zcuZOf/exng8rdFcLatWv5p3/6J775zW/mDewaCslkkqVLl/Lqq6+edgK/v/71r8lkMkV9HpLJJD/72c9YvXo1CxYsOAG7O/1QOpdcrKJPINkWFqXjud5sS2oinrXr6svwLh5L1fRRJN/YiX8g16VKrdtP+dRGdF054DkB4mBaZL+e8jBv5dTSRZFpHIOMGYuadgj1x3cxydwWLW/NBzB5MqasEs+JDAdF6kFxvThJuf7TIo0okmMmkRx7BuV7P6X2T79HUqWb0lgI27Zt44c//CELFy5k3rx5nHnmmXmxpVQqxbp163jrrbeKkkj7LGzatIm///u/Z968ecybN4+pU6cWHGuaSqX4+OOPWbduHe+8884xk8myZcv44IMPWLx4MRdffHGeW6y1ZsuWLfzpT39i5cqVwyZmsEmgf/mXf2HGjBlceumlnHvuuQUtTq0127ZtY8OGDSxfvvyYp1SeLGiteeGFF1izZg3XXXcd5557bp7H0tPTw4oVK3jrrbc4fPjwSdrp6QG55557SjIjdvT/bXTud6APGViUErZABlMkbf1QVkLN+ELyf7fi788NpntnjERdda7VnuzXt62dnrsxlu/9UG29X6G5I2lp7yLx8pt5sUl9zjR65s7DF0vuviPIDAHhCxnJamuG9ZiuYF4JJI4couH1XyCZE2d1VFdXM3r0aOrq6kilUrS3t9PS0pJHVoVa246GYMC6/mPGjKGuro5YLEZXVxednZ0cOnToqNr7Bu6t0L6UUowdO5YRI0aQSCRob2/n4MGDR91bPxhisRiNjY3U1dVRXl5Od3c3nZ2dHD58eNhto6VqJxzs/6kU/6eJRIKmpiZqamrQWtPS0sKhQ4cK9mIX8/90LOcPde1wrz/W+xd9j1IR5pj/M95agP3GRIhRVvVcO6IJCDNn5rfr+unx6fv1RkyqX+xEIPGXl6Ary9HGWo/G9XZn7xOMxY05SzHQsXRK66KIf7qP2FvLcjcci9H+9dswXsKuEQiHiAoL1LMz0D3X3aNsHaeTjxOE2u3rqP3z51OeK0KECLko4dTILIkZPEssQduiWF1JP4w3egixcLStNgoqyojPHBCnM6B3tjqVo+y8oCxJOstPAutPhWpGvrNGxShSzRMwjQNGpGYylO3bbwlR27UzImiN1b7E6XaGepcqHJIWuP8GoX3SBfgN0fjVCBG+CCgZYVqCIhwWZoKZPo7cTOiG4yYwunhkP5k0OWt0vnj5vrZsfFFnXW5jsusFc4O0O4YrUtfEQtV3f2p+jVxs/76QjIPrjVirOJhcKUFYoZ92p3bSwYK9XfKM80v1GCNEiHAKo7RD0IwHErPus5vro/FsxNGNrDVOao1w8Bj42JZIU1GB1OYq0OjulBuU5uEH4pouAWMTNF54LCA/o5UTEbZjLUCRHpOfZZbuHuvGC45kY05uDueGC2mDm0WkQrENgv06Kk+OnZS3doQIET5/KFmW3BixnKjJScBYYWBrTQoxAo42gdpQGCd0nT3VCfz2bMbc9PQhzmUO4qChKx6s5cjYJnCySkPG4EqSBFVZaUmxXyBYenvI4LlklefWd0rqrkYzUFn3HYF6oWVsXPLJkC4/cUIVESJEOHkoaVmRceK9ol38MrAsxd5KNGTAEVH21iZUFAIzoHzFtkOqcByEH/KdVUD3RQjG+wYDywQhI9bZF5fR1iqeR5j4Np+vnTo7hn4SbpactQQxTEuWmuz1nr0E/yhFfiNEiHB6oYQ/6YFL7OE7XUpj7DHjSDNQTNfGw2h7TlZQ2HPX50P3I0yRbDF8kHgJMtmB9JqGcPZOoMVZsBTAGJe59xyZ2sSVb6neErsJsvv0c8gD3ffSly1EiBDh1EXJCNNPAmWByrmNTZp+IrxBqVF/ktQioL2scjkwMKwqfWk7+dFl3YMEj/2erLhvMM4XUMFIClFIqLeZX+clfUlHppZYfaTfFEs3ToNgNqTguzJ83xFnoLMZqflHiPDFQMmSPqYjY0WAXaxRkZ0Zbu0wCTPWxrm6hmDIWLamMm9drfG6+9w88n5kC2Cs+y/aut6eUa47xyaFJDwflzDKhfT2oPwMEmbdhUxI7JZIg3y476KsJnxoxg3yNajP7xyrCBEi9EPJCDO9s4dMUAPp6iBDt1zH0BLDSHZ0rRgP0V44O8e6xYWVy+XTlrCUyPRLENlrlMuii+vSCc6zSaFM6JIXWFv7lO3bZfcgbi0Xu8zui5w/DcZ2LoXfC6jINY8Q4YuAkhFm8sM28I2zBJ2V5qxGXwzG4L6cXWZsraYEkx+DDp5CVuaH2xFjnIvv9RPykHCqY+DWB6QZZNO9wBUfhNMqP1xNUGcZlDp5KBejtEken2z8UoVlRSZc1gwSe40QIcLnC6VzyXvSpN9tIWgpDCzBsAWyn3sclO5YonPqRmKcW14AHV3E12/NxildYbkfEpWbCTSglzy0MMUblNS8g7up3rbR7ctamL6rsvRczFK5ewScG0RitYtkqij5EyHCFwIlNY36Nhwis/GwpRFXMynEXJukG3zm5pAHbYxa7BCxQJyjUBwTgDWbiG3fZZMw2glrSDaRlEHIoMKRvX6/7LvWzuUeBDUrX6N6385sH7pLAFk5AuN61F0JUb8dBmcPuucIESJ8rlByXzL5zm7SK/YgSePm54C1AAFXgK5NNski2kMkK682KIzBW/YuiffXojO+tQZdvaRvbBZdhRl5O81RnHSbERma0rRP3R9/xcgNK4j76ZC2VZh1z2oveVjSDIrxNeAfB1WUCBEinHo4LhXXqc0Hke1H8KaMRDWNwNRWILEYglUCkrDXOyuiIUGUcDC1dAe1cTOVW7ejJ09GjxtPqroaYlZxSKNc+VDWJS8z4orl1aBxTACMpnLd21RsWUVy0nn0NU7Cr6hFezE7Y4jB6dw7QSrsESJEOLkombxbhAgRInzeEaV3I0SIEKFIRIQZIUKECEUiIswIESJEKBIRYUaIECFCkYgIM0KECBGKRESYESJEiFAkIsKMECFChCIREWaECBEiFImIMCNEiBChSPx/WQK+lzPbUVYAAAAASUVORK5CYII=;" vertex="1" parent="1">
          <mxGeometry x="160" y="290" width="160" height="40.48" as="geometry" />
        </mxCell>
        <mxCell id="fJBAHvxhCO_1ta349B0q-8" value="" style="endArrow=classic;html=1;rounded=0;endSize=5;startSize=5;jumpSize=5;strokeWidth=5;entryX=0;entryY=1;entryDx=0;entryDy=0;exitX=1;exitY=0.618;exitDx=0;exitDy=0;exitPerimeter=0;" edge="1" parent="1" source="fJBAHvxhCO_1ta349B0q-3" target="fJBAHvxhCO_1ta349B0q-6">
          <mxGeometry width="50" height="50" relative="1" as="geometry">
            <mxPoint x="110" y="340" as="sourcePoint" />
            <mxPoint x="160" y="290" as="targetPoint" />
          </mxGeometry>
        </mxCell>
        <mxCell id="fJBAHvxhCO_1ta349B0q-11" value="&lt;span style=&quot;font-size: 15px;&quot;&gt;MySQL&lt;/span&gt;" style="text;html=1;align=center;verticalAlign=middle;whiteSpace=wrap;rounded=0;" vertex="1" parent="1">
          <mxGeometry x="170" y="330" width="60" height="30" as="geometry" />
        </mxCell>
        <mxCell id="fJBAHvxhCO_1ta349B0q-12" value="Kafka Connect with Debezium source connectors" style="text;html=1;align=center;verticalAlign=middle;whiteSpace=wrap;rounded=0;" vertex="1" parent="1">
          <mxGeometry x="160" y="380" width="160" height="30" as="geometry" />
        </mxCell>
      </root>
    </mxGraphModel>
  </diagram>
</mxfile>
